<svg xmlns="http://www.w3.org/2000/svg" viewBox="0 0 767.41 738.31" version="1.1" data-name="Layer 1" height="738.31" width="767.41">
 <defs>
  <style>.cls-1{fill:#e9500e;}.cls-2{fill:#fff;}</style>
 </defs>
 <path stroke-width=".91644" fill="#e95420" d="m548.09 30.842a99.92 99.92 0 0 0-99.92 99.92 99.92 99.92 0 0 0 99.92 99.92 99.92 99.92 0 0 0 99.92-99.92 99.92 99.92 0 0 0-99.92-99.92zm-137.41 10.118c-117.17-0.67382-228.12 62.742-286.42 165.6 2.5358-0.13911 5.0723-0.20716 7.6108-0.20584a144.2 144.2 0 0 1 75.775 21.578 243.69 243.69 0 0 1 196.22-104.94 144.88 144.88 0 0 1 30.312-81.032c-7.8529-0.6219-15.692-0.95209-23.503-0.997zm270.32 146.34a144.01 144.01 0 0 1-56.188 65.803 244.96 244.96 0 0 1-8.0063 243.31 143.29 143.29 0 0 1 47.813 74.44 326.9 326.9 0 0 0 16.381-383.55zm-549.02 62.633a99.92 99.92 0 0 0-99.92 99.92 99.92 99.92 0 0 0 99.92 99.92 99.92 99.92 0 0 0 99.92-99.92 99.92 99.92 0 0 0-99.92-99.92zm59.406 230.5a143.84 143.84 0 0 1-85.43 10.502 325.28 325.28 0 0 0 234.19 196.27 329.2 329.2 0 0 0 70.949 7.3011 142.97 142.97 0 0 1-29.255-83.538c-8.2294-0.91415-16.449-2.2504-24.509-3.9754a243.33 243.33 0 0 1-165.94-126.56zm334.2 27.193a99.92 99.92 0 0 0-99.92 99.92 99.92 99.92 0 0 0 99.92 99.92 99.92 99.92 0 0 0 99.92-99.92 99.92 99.92 0 0 0-99.92-99.92z" class="cls-2"></path>
</svg>
